<?xml version="1.0" standalone="no"?>
<!DOCTYPE svg PUBLIC "-//W3C//DTD SVG 20010904//EN"
 "http://www.w3.org/TR/2001/REC-SVG-20010904/DTD/svg10.dtd">
<svg version="1.0" xmlns="http://www.w3.org/2000/svg"
 width="1280.000000pt" height="760.000000pt" viewBox="0 0 1280.000000 760.000000"
 preserveAspectRatio="xMidYMid meet">

<g transform="translate(0.000000,760.000000) scale(0.100000,-0.100000)"
fill="#000000" stroke="none">
<path d="M3612 6414 c-5 -9 -7 -25 -5 -35 3 -11 0 -19 -6 -19 -6 0 -11 -7 -11
-15 0 -8 -4 -15 -10 -15 -5 0 -10 -25 -10 -56 l0 -55 -42 3 c-36 2 -45 8 -58
33 -12 23 -22 30 -45 30 -28 0 -30 -3 -36 -43 -3 -24 -2 -45 3 -48 13 -8 9
-36 -6 -53 -8 -9 -16 -27 -18 -41 -5 -36 -41 -70 -67 -63 -12 3 -21 11 -21 18
0 7 -11 20 -25 29 -14 9 -25 26 -25 37 0 20 -37 68 -52 69 -5 0 -8 -7 -8 -15
0 -8 -4 -15 -9 -15 -6 0 -11 -17 -13 -37 -2 -30 -8 -38 -28 -43 -14 -3 -26
-14 -29 -25 -2 -11 -11 -28 -20 -37 -38 -40 -41 -47 -34 -95 15 -113 73 -148
210 -128 71 10 87 17 147 61 37 27 78 56 90 64 68 46 111 88 129 129 11 26 36
66 55 91 l34 45 -6 95 c-5 66 -11 98 -21 106 -8 6 -12 14 -8 18 8 8 -15 26
-34 26 -7 0 -16 -7 -21 -16z"/>
<path d="M7779 6038 c-40 -44 -99 -161 -99 -197 0 -17 -4 -33 -10 -36 -5 -3
-10 -14 -10 -25 0 -10 -7 -20 -15 -24 -19 -7 -19 -55 -1 -127 8 -31 20 -98 26
-150 5 -52 15 -116 20 -144 6 -27 14 -90 19 -140 5 -49 14 -135 20 -190 6 -55
12 -149 14 -208 l4 -108 -91 -46 c-50 -25 -107 -59 -126 -75 -19 -16 -60 -51
-90 -76 -145 -122 -269 -264 -355 -403 -22 -35 -50 -75 -66 -94 -22 -25 -59
-130 -59 -166 0 -15 -7 -40 -15 -55 -8 -16 -15 -36 -15 -44 0 -9 -6 -25 -14
-36 -8 -11 -14 -34 -14 -50 1 -16 -8 -45 -18 -64 -10 -19 -19 -42 -19 -50 0
-22 -77 -56 -192 -85 -57 -14 -124 -33 -150 -44 -27 -10 -86 -27 -132 -37 -80
-18 -86 -21 -150 -84 -36 -36 -73 -74 -81 -85 -8 -11 -33 -42 -55 -70 -46 -57
-85 -125 -85 -149 0 -9 -12 -45 -27 -79 -14 -34 -30 -80 -35 -102 -42 -181
-43 -191 -41 -364 1 -95 7 -224 12 -285 6 -61 13 -167 16 -236 6 -150 15 -286
19 -320 8 -60 16 -142 21 -235 8 -127 20 -199 51 -303 22 -75 50 -232 73 -412
15 -114 45 -210 66 -210 7 0 18 -7 25 -15 7 -9 19 -14 26 -11 7 3 14 0 16 -6
6 -18 44 1 57 28 6 14 9 30 6 34 -3 5 2 24 11 42 13 24 15 49 12 107 -3 41 -1
90 4 108 5 20 5 64 -2 115 -6 46 -13 126 -16 178 -3 52 -17 165 -31 250 -34
213 -42 280 -42 387 -1 50 -6 104 -12 119 -16 44 -21 924 -4 986 19 73 78 130
158 152 34 9 82 24 107 32 25 9 70 22 100 29 85 21 284 89 305 105 6 4 42 15
80 25 138 33 274 114 378 224 40 43 67 80 67 94 0 12 7 31 15 41 8 11 15 17
15 13 0 -4 9 -3 20 3 11 6 20 20 20 31 0 12 -4 17 -11 14 -5 -4 8 17 30 46 43
57 59 125 35 145 -8 6 -12 13 -9 16 2 2 -17 25 -43 50 -53 52 -81 62 -231 83
-92 13 -140 25 -101 25 7 0 63 49 124 109 152 149 256 238 302 257 21 9 49 24
62 35 13 10 44 21 70 25 l47 7 -29 12 c-19 8 -25 15 -17 20 7 4 16 18 21 31 5
13 14 24 19 24 6 0 7 -8 4 -17 -6 -16 -5 -16 10 -4 9 7 15 17 12 21 -3 4 1 10
9 13 10 4 19 -7 29 -31 13 -32 30 -108 32 -137 0 -5 17 -62 37 -125 21 -63 44
-160 53 -215 9 -55 21 -123 27 -151 8 -37 7 -57 -1 -72 -6 -11 -11 -39 -11
-61 0 -34 3 -41 20 -41 11 0 20 -4 20 -9 0 -20 59 -21 121 -2 104 31 173 49
189 49 38 -1 269 75 338 111 31 17 69 33 84 36 15 4 29 13 31 20 3 7 23 16 44
20 21 4 49 13 63 21 14 8 72 33 130 56 97 38 113 41 205 42 81 1 113 6 170 27
39 14 113 40 165 58 196 67 248 92 388 184 98 65 173 134 234 216 154 206 178
260 185 406 6 121 -28 312 -77 430 -12 28 -25 77 -45 170 -10 44 -22 88 -27
99 -6 10 -14 42 -18 70 -19 118 -49 277 -56 289 -23 40 -78 97 -94 97 -52 0
-109 -59 -125 -128 -3 -18 -10 -32 -15 -32 -13 0 -82 -148 -87 -191 -9 -65 34
-344 79 -509 11 -41 24 -92 29 -112 5 -20 20 -72 34 -114 14 -42 28 -107 31
-143 7 -78 16 -68 -141 -167 -111 -71 -295 -158 -320 -152 -10 2 -8 16 11 63
27 66 26 106 -6 172 -20 42 -46 67 -136 130 -34 24 -64 49 -67 57 -3 8 -36 18
-88 26 -112 16 -192 14 -229 -5 -37 -19 -174 -123 -178 -136 -2 -5 -10 -9 -17
-9 -15 0 -60 -56 -76 -97 -7 -15 -22 -51 -35 -79 -18 -37 -22 -60 -17 -84 4
-24 3 -31 -5 -26 -24 14 -31 -5 -15 -42 17 -42 70 -102 90 -102 7 0 13 -4 13
-8 0 -4 10 -8 22 -9 21 -2 67 -38 57 -46 -25 -22 -156 -84 -226 -108 -244 -81
-328 -106 -332 -95 -2 6 -8 14 -13 17 -6 4 -11 51 -13 105 -2 96 -9 123 -58
234 -6 14 -12 30 -12 35 -9 65 -43 201 -60 235 -18 36 -44 223 -55 401 -14
219 -38 468 -50 509 -5 19 -10 60 -10 90 0 30 -7 87 -16 125 -8 39 -18 87 -21
107 -3 21 -12 43 -19 49 -8 6 -14 20 -14 31 0 10 -7 21 -15 24 -8 3 -17 14
-20 24 -6 20 -63 60 -84 60 -7 0 -26 -15 -42 -32z"/>
<path d="M5011 5904 c-16 -25 -35 -63 -42 -83 -6 -20 -16 -42 -21 -48 -6 -7
-8 -20 -4 -28 3 -8 1 -15 -4 -15 -6 0 -10 -8 -10 -17 0 -9 -6 -24 -14 -32 -15
-17 -24 -105 -13 -131 12 -31 67 -431 73 -528 2 -35 10 -89 18 -120 8 -31 17
-82 21 -112 3 -30 12 -77 19 -105 22 -81 46 -226 48 -290 1 -33 10 -78 19
-100 9 -22 22 -83 27 -135 6 -53 20 -124 31 -158 12 -34 21 -76 21 -95 0 -18
8 -67 18 -108 31 -121 40 -171 47 -238 6 -58 10 -68 50 -107 24 -24 53 -44 64
-44 19 0 98 34 141 61 8 5 26 14 40 20 112 48 227 130 271 193 15 23 36 50 46
61 25 29 63 100 63 119 0 9 20 54 45 99 25 47 48 104 51 130 9 63 -13 162 -43
198 -27 31 -60 38 -69 14 -3 -8 -15 -17 -25 -20 -11 -4 -34 -30 -53 -59 -51
-80 -147 -166 -228 -203 -102 -48 -103 -47 -117 45 -6 42 -18 111 -26 152 -8
41 -17 98 -21 125 -3 28 -10 57 -14 65 -4 8 -12 49 -19 90 -7 41 -19 111 -26
155 -8 44 -21 123 -30 175 -9 52 -23 131 -31 175 -19 102 -32 203 -45 335 -23
232 -47 401 -60 416 -6 7 -9 27 -7 45 2 26 -2 36 -18 44 -35 18 -54 36 -54 54
0 10 -9 17 -27 18 -15 0 -32 8 -39 17 -16 23 -19 21 -53 -30z"/>
<path d="M10885 5767 c-49 -59 -65 -89 -65 -121 0 -21 -12 -53 -30 -84 -26
-41 -32 -62 -36 -133 -6 -91 -3 -109 64 -364 22 -82 43 -175 47 -205 3 -30 13
-75 20 -100 8 -25 19 -85 24 -135 12 -101 48 -254 80 -339 11 -31 21 -67 21
-79 1 -23 42 -77 59 -77 6 0 15 -9 21 -20 8 -16 17 -19 38 -14 37 9 93 65 95
95 0 13 4 26 7 29 20 19 51 75 57 102 3 18 10 38 14 44 20 26 12 256 -10 274
-13 11 -31 51 -31 69 0 10 -9 46 -19 79 -11 34 -25 99 -31 144 -6 46 -18 106
-26 133 -8 28 -19 79 -25 115 -5 36 -18 94 -28 130 -10 36 -24 91 -31 123 -7
31 -17 57 -21 57 -5 0 -11 17 -14 38 -17 104 -74 228 -113 244 -27 10 -56 8
-67 -5z"/>
<path d="M3329 5403 c-9 -2 -24 -23 -34 -46 -9 -23 -23 -56 -31 -72 -8 -17
-14 -44 -12 -60 3 -38 -11 -64 -23 -44 -4 7 -11 10 -16 6 -4 -4 -2 -17 5 -28
10 -16 9 -24 -5 -45 -15 -23 -15 -35 -4 -113 16 -111 40 -248 52 -287 5 -17 9
-48 9 -70 0 -21 5 -55 11 -74 9 -32 22 -154 36 -350 l5 -76 -69 -71 c-37 -39
-84 -88 -103 -110 -39 -44 -184 -130 -275 -164 -33 -12 -71 -30 -85 -39 -22
-15 -99 -36 -101 -28 0 2 -6 57 -14 123 -13 122 -47 318 -67 390 -6 22 -13 56
-15 75 -2 19 -10 44 -17 55 -6 11 -20 47 -30 80 -17 57 -17 64 -2 99 17 40 20
85 9 124 -4 17 -8 20 -14 11 -6 -10 -10 -9 -14 6 -15 45 -30 67 -61 86 l-33
20 -41 -27 c-22 -15 -39 -33 -36 -39 8 -23 -31 -42 -98 -48 -57 -5 -76 -13
-129 -49 -34 -24 -69 -50 -77 -58 -25 -25 -133 -96 -167 -109 -17 -7 -39 -21
-49 -32 -9 -10 -21 -19 -26 -19 -9 0 -17 -7 -121 -100 -40 -36 -88 -85 -107
-109 -19 -25 -41 -50 -47 -57 -16 -16 -89 -171 -115 -243 -11 -31 -27 -76 -36
-101 -8 -25 -20 -48 -25 -51 -5 -4 -7 -12 -3 -18 4 -6 3 -19 -3 -29 -15 -29 6
-103 40 -138 16 -17 51 -42 77 -55 43 -22 58 -24 183 -23 106 2 153 7 215 24
78 22 209 85 292 141 24 16 46 29 50 29 4 0 20 14 36 31 16 16 41 33 57 36 16
3 26 9 23 14 -3 5 0 9 6 9 15 0 18 -12 30 -135 15 -153 19 -186 30 -220 5 -16
12 -58 16 -93 5 -52 12 -67 38 -93 28 -28 36 -30 81 -25 70 6 152 36 225 80
14 9 59 25 100 37 41 12 84 32 96 44 12 12 46 34 75 50 80 41 133 80 165 120
152 186 186 226 192 221 2 -3 11 -44 18 -92 18 -106 60 -198 121 -260 l46 -46
66 21 c37 12 76 21 88 21 23 0 203 88 203 99 0 4 19 13 43 20 23 7 58 25 77
40 19 16 45 31 57 35 11 4 32 17 44 29 34 32 96 77 107 77 24 0 122 113 165
189 26 46 47 87 47 91 0 5 3 10 8 12 4 2 20 34 36 71 16 38 40 85 54 105 48
70 61 139 51 260 -5 59 -16 139 -24 177 -8 39 -28 133 -44 210 -45 212 -94
330 -156 371 -31 21 -73 11 -84 -19 -5 -12 -21 -35 -35 -52 -14 -16 -26 -36
-26 -43 0 -12 -5 -24 -32 -74 -30 -58 -37 -76 -41 -112 -3 -21 -10 -43 -16
-49 -13 -13 -14 -59 -2 -73 5 -5 19 -63 31 -129 13 -66 28 -151 36 -190 26
-136 36 -206 30 -220 -2 -7 -35 -36 -73 -64 -37 -27 -75 -56 -83 -63 -30 -25
-325 -167 -362 -174 -45 -7 -45 -7 -58 151 -4 61 -15 140 -24 176 -9 38 -18
140 -21 240 -3 96 -15 235 -26 309 -12 74 -24 160 -29 190 -4 30 -10 66 -13
80 -3 14 -11 57 -17 97 -7 43 -18 77 -29 87 -10 9 -28 38 -41 65 -29 62 -79
89 -141 74z m-1100 -1189 c41 -53 32 -63 -107 -130 -70 -34 -146 -69 -170 -78
-44 -17 -112 -22 -112 -8 0 8 62 52 74 52 6 0 72 45 86 60 17 17 130 100 155
113 41 22 50 21 74 -9z"/>
<path d="M5292 2519 c-9 -11 -27 -32 -39 -45 -13 -14 -26 -37 -29 -52 -4 -15
-18 -49 -32 -77 -14 -27 -25 -58 -23 -67 1 -10 -3 -27 -10 -40 -6 -12 -14 -46
-16 -75 -5 -51 -3 -56 34 -94 21 -22 58 -49 82 -59 49 -22 126 -26 156 -7 88
53 105 73 82 96 -8 8 -5 11 11 11 25 0 46 33 39 61 -4 14 0 19 14 19 23 0 39
32 20 38 -8 3 -5 9 8 19 13 8 21 25 21 42 0 15 5 32 11 38 15 15 -7 73 -27 73
-8 0 -14 10 -14 23 0 33 -34 65 -83 77 -23 6 -60 17 -82 25 -58 21 -102 19
-123 -6z"/>
</g>
</svg>
